<?xml version="1.0" encoding="UTF-8" standalone="no"?>
<svg
   width="1024"
   height="1024"
   viewBox="0 0 1023.9999 1024"
   version="1.1"
   id="svg298"
   sodipodi:docname="RName-Correction-Fluid-Bottle.svg"
   inkscape:version="1.2.2 (b0a84865, 2022-12-01)"
   xmlns:inkscape="http://www.inkscape.org/namespaces/inkscape"
   xmlns:sodipodi="http://sodipodi.sourceforge.net/DTD/sodipodi-0.dtd"
   xmlns="http://www.w3.org/2000/svg"
   xmlns:svg="http://www.w3.org/2000/svg"
   xmlns:rdf="http://www.w3.org/1999/02/22-rdf-syntax-ns#"
   xmlns:cc="http://creativecommons.org/ns#"
   xmlns:dc="http://purl.org/dc/elements/1.1/">
  <sodipodi:namedview
     id="namedview300"
     pagecolor="#ffffff"
     bordercolor="#666666"
     borderopacity="1.0"
     inkscape:showpageshadow="2"
     inkscape:pageopacity="0.0"
     inkscape:pagecheckerboard="0"
     inkscape:deskcolor="#d1d1d1"
     showgrid="false"
     inkscape:zoom="0.23046875"
     inkscape:cx="203.9322"
     inkscape:cy="442.57627"
     inkscape:window-width="1440"
     inkscape:window-height="814"
     inkscape:window-x="0"
     inkscape:window-y="30"
     inkscape:window-maximized="0"
     inkscape:current-layer="svg298" />
  <title
     id="title193">Correction fluid bottle and brush</title>
  <desc
     id="desc195">Editable vector master for the R-Name app icon. The bottle and brush are separate named groups on a transparent square canvas.</desc>
  <defs
     id="defs247">
    <linearGradient
       id="bodyFill"
       x1="326.36368"
       y1="162.73755"
       x2="815.41071"
       y2="162.73755"
       gradientTransform="matrix(0.60408962,0,0,1.1103841,106.60112,70.495883)"
       gradientUnits="userSpaceOnUse">
      <stop
         offset="0"
         stop-color="#bcc2c8"
         id="stop197" />
      <stop
         offset="0.17"
         stop-color="#f7f8f8"
         id="stop199" />
      <stop
         offset="0.55"
         stop-color="#ffffff"
         id="stop201" />
      <stop
         offset="0.82"
         stop-color="#e3e6e8"
         id="stop203" />
      <stop
         offset="1"
         stop-color="#a9b0b7"
         id="stop205" />
    </linearGradient>
    <linearGradient
       id="shoulderFill"
       x1="192.17958"
       y1="314.25098"
       x2="192.17958"
       y2="562.09985"
       gradientTransform="matrix(1.0909923,0,0,0.61482697,106.60112,70.495883)"
       gradientUnits="userSpaceOnUse">
      <stop
         offset="0"
         stop-color="#ffffff"
         id="stop208" />
      <stop
         offset="0.55"
         stop-color="#e9ecee"
         id="stop210" />
      <stop
         offset="1"
         stop-color="#aeb5bb"
         id="stop212" />
    </linearGradient>
    <linearGradient
       id="neckFill"
       x1="404.15002"
       y1="59.217838"
       x2="598.20306"
       y2="59.217838"
       gradientTransform="matrix(0.68811489,0,0,0.97479582,106.60112,70.495883)"
       gradientUnits="userSpaceOnUse">
      <stop
         offset="0"
         stop-color="#aab1b7"
         id="stop215" />
      <stop
         offset="0.22"
         stop-color="#f6f7f7"
         id="stop217" />
      <stop
         offset="0.62"
         stop-color="#ffffff"
         id="stop219" />
      <stop
         offset="1"
         stop-color="#a8afb5"
         id="stop221" />
    </linearGradient>
    <linearGradient
       id="labelFill"
       x1="252.22491"
       y1="444.043"
       x2="252.22491"
       y2="771.99426"
       gradientTransform="matrix(0.82860784,0,0,0.80951622,106.60112,70.495883)"
       gradientUnits="userSpaceOnUse">
      <stop
         offset="0"
         stop-color="#173a82"
         id="stop224" />
      <stop
         offset="1"
         stop-color="#081f59"
         id="stop226" />
    </linearGradient>
    <linearGradient
       id="capFill"
       x1="576.23676"
       y1="630.22412"
       x2="813.16516"
       y2="630.22412"
       gradientTransform="matrix(0.93916469,1.0457403e-4,7.9551447e-5,0.71422139,126.35653,67.789592)"
       gradientUnits="userSpaceOnUse">
      <stop
         offset="0"
         stop-color="#9aa1a8"
         id="stop229" />
      <stop
         offset="0.18"
         stop-color="#f4f5f5"
         id="stop231" />
      <stop
         offset="0.72"
         stop-color="#ffffff"
         id="stop233" />
      <stop
         offset="1"
         stop-color="#abb1b7"
         id="stop235" />
    </linearGradient>
    <linearGradient
       id="brushMetal"
       x1="217.21173"
       y1="748.38385"
       x2="217.21173"
       y2="827.71112"
       gradientTransform="matrix(0.98853738,1.1007158e-4,7.5578236e-5,0.67854948,126.35653,67.789592)"
       gradientUnits="userSpaceOnUse">
      <stop
         offset="0"
         stop-color="#f5f6f7"
         id="stop238" />
      <stop
         offset="0.42"
         stop-color="#a8afb6"
         id="stop240" />
      <stop
         offset="0.63"
         stop-color="#eef0f1"
         id="stop242" />
      <stop
         offset="1"
         stop-color="#7c858e"
         id="stop244" />
    </linearGradient>
  </defs>
  <!-- Optional shadow: hide this group before importing flat artwork into Icon Composer. -->
  <!-- Bottle artwork. -->
  <!-- Brush and detached cap. Rotate, move, or hide this group independently. -->
  <g
     id="g340"
     transform="matrix(1.2207604,0,0,1.221223,-130.13443,-86.091195)"
     style="stroke-width:0.819006">
    <g
       id="00-reference-shadow"
       opacity="0.18"
       style="stroke-width:0.670771">
      <ellipse
         cx="451"
         cy="855"
         rx="250"
         ry="54"
         fill="#071226"
         id="ellipse249"
         style="stroke-width:0.549366" />
      <ellipse
         cx="719"
         cy="807"
         rx="208"
         ry="39"
         fill="#071226"
         transform="rotate(-18,719,807)"
         id="ellipse251"
         style="stroke-width:0.549366" />
    </g>
    <g
       id="10-bottle"
       style="stroke-width:0.819006">
      <!-- Main cylindrical body -->
      <path
         id="bottle-body"
         d="m 246,347 c 0,-45 36,-71 81,-89 v -32 h 188 v 32 c 46,18 81,44 81,89 v 415 c 0,62 -42,96 -103,109 -46,10 -99,10 -145,0 C 287,858 246,824 246,762 Z"
         fill="url(#bodyFill)"
         stroke="#27313a"
         stroke-width="10.6471"
         stroke-linejoin="round"
         style="fill:url(#bodyFill)" />
      <!-- Shoulder volume -->
      <path
         id="bottle-shoulders"
         d="m 258,344 c 0,-31 32,-53 84,-70 v -36 h 158 v 36 c 51,17 84,39 84,70 0,46 -71,76 -163,76 -92,0 -163,-30 -163,-76 z"
         fill="url(#shoulderFill)"
         stroke="#6c747b"
         stroke-width="4.09503"
         style="fill:url(#shoulderFill)" />
      <!-- Neck -->
      <path
         id="bottle-neck"
         d="m 344,117 c 0,-26 34,-42 77,-42 43,0 77,16 77,42 v 140 c 0,24 -34,40 -77,40 -43,0 -77,-16 -77,-40 z"
         fill="url(#neckFill)"
         stroke="#27313a"
         stroke-width="9.00907"
         style="fill:url(#neckFill)" />
      <!-- Open mouth -->
      <ellipse
         cx="421"
         cy="117"
         rx="77"
         ry="42"
         fill="#c8cdd1"
         stroke="#27313a"
         stroke-width="9.00907"
         id="ellipse257" />
      <ellipse
         cx="421"
         cy="113"
         rx="53"
         ry="25"
         fill="#59626a"
         id="ellipse259"
         style="stroke-width:0.670771" />
      <ellipse
         cx="421"
         cy="108"
         rx="40"
         ry="15"
         fill="#20272d"
         id="ellipse261"
         style="stroke-width:0.670771" />
      <!-- Thread rings -->
      <path
         d="m 340,151 c 38,22 124,22 162,0"
         fill="none"
         stroke="#8c949a"
         stroke-width="9.82808"
         stroke-linecap="round"
         id="path263" />
      <path
         d="m 340,184 c 38,22 124,22 162,0"
         fill="none"
         stroke="#8c949a"
         stroke-width="9.82808"
         stroke-linecap="round"
         id="path265" />
      <path
         d="m 344,217 c 37,21 117,21 154,0"
         fill="none"
         stroke="#8c949a"
         stroke-width="9.82808"
         stroke-linecap="round"
         id="path267" />
      <!-- Blank label, ready for your own mark or colour treatment -->
      <path
         id="bottle-label"
         d="m 258,443 c 90,31 236,31 326,0 v 294 c -90,31 -236,31 -326,0 z"
         fill="url(#labelFill)"
         stroke="#0b1b39"
         stroke-width="5.73305"
         style="fill:url(#labelFill)" />
      <!-- Red accent inherited from the historical icon, deliberately text-free -->
      <path
         id="label-accent"
         d="m 275,491 c 62,-35 193,-39 277,-11 25,9 33,31 22,55 -15,31 -47,39 -83,27 -73,-24 -139,-20 -199,4 -22,-18 -29,-49 -17,-75 z"
         fill="#c72b37"
         style="stroke-width:0.670771" />
      <!-- Small-scale highlights -->
      <path
         d="m 290,379 c 12,-20 31,-33 54,-43 v 478 c -28,-9 -50,-29 -54,-60 z"
         fill="#ffffff"
         opacity="0.22"
         id="path271"
         style="stroke-width:0.670771" />
      <path
         d="m 546,388 c 14,-13 25,-27 34,-45 v 413 c -3,29 -21,51 -42,62 z"
         fill="#26323d"
         opacity="0.12"
         id="path273"
         style="stroke-width:0.670771" />
    </g>
    <g
       id="20-brush"
       transform="rotate(-18,690,727)"
       style="stroke-width:0.819006">
      <!-- Cap body -->
      <path
         id="cap-body"
         d="m 666,555 h 198 c 37,0 63,29 63,66 v 64 c 0,37 -26,66 -63,66 H 666 Z"
         fill="url(#capFill)"
         stroke="#27313a"
         stroke-width="10.6471"
         stroke-linejoin="round"
         style="fill:url(#capFill)" />
      <!-- Cap ribs -->
      <path
         d="M 744,569 V 737 M 782,569 V 737 M 820,569 V 737 M 858,569 V 737"
         stroke="#c8cdd1"
         stroke-width="9.82808"
         id="path277" />
      <!-- Cap opening -->
      <ellipse
         cx="666"
         cy="653"
         rx="76"
         ry="98"
         fill="#c7ccd0"
         stroke="#27313a"
         stroke-width="10.6471"
         id="ellipse279" />
      <ellipse
         cx="666"
         cy="653"
         rx="49"
         ry="68"
         fill="#eef0f1"
         stroke="#9fa6ac"
         stroke-width="7.37106"
         id="ellipse281" />
      <ellipse
         cx="666"
         cy="653"
         rx="29"
         ry="47"
         fill="#a5adb4"
         id="ellipse283"
         style="stroke-width:0.670771" />
      <!-- Brush stem -->
      <path
         d="M 665,653 H 343"
         fill="none"
         stroke="#737c84"
         stroke-width="26.2082"
         stroke-linecap="round"
         id="path285" />
      <path
         d="M 656,643 H 355"
         fill="none"
         stroke="#eef0f1"
         stroke-width="7.37106"
         stroke-linecap="round"
         opacity="0.85"
         id="path287" />
      <!-- Brush ferrule -->
      <path
         d="m 355,623 -90,7 v 46 l 90,7 z"
         fill="url(#brushMetal)"
         stroke="#444d55"
         stroke-width="5.73305"
         stroke-linejoin="round"
         id="path289"
         style="fill:url(#brushMetal)" />
      <!-- White correction-fluid-loaded bristles -->
      <path
         d="m 267,629 c -42,-4 -86,6 -134,25 48,22 92,30 134,22 z"
         fill="#f8f9f9"
         stroke="#5b646c"
         stroke-width="5.73305"
         stroke-linejoin="round"
         id="path291" />
      <path
         d="m 246,643 c -35,1 -65,9 -93,13"
         fill="none"
         stroke="#c8cdd1"
         stroke-width="4.09503"
         stroke-linecap="round"
         id="path293" />
      <path
         d="m 249,662 c -38,2 -66,-2 -95,-6"
         fill="none"
         stroke="#ffffff"
         stroke-width="4.09503"
         stroke-linecap="round"
         id="path295" />
    </g>
  </g>
  <metadata
     id="metadata405">
    <rdf:RDF>
      <cc:Work
         rdf:about="">
        <dc:title>Correction fluid bottle and brush</dc:title>
      </cc:Work>
    </rdf:RDF>
  </metadata>
</svg>
